<svg version="1.1"  xmlns="http://www.w3.org/2000/svg" xmlns:xlink="http://www.w3.org/1999/xlink" width="700" viewBox="547.246 0 1458.146 1440" enable-background="new 547.246 0 1458.146 1440"xml:space="preserve"><g><g><linearGradient id="SVGID_1_" gradientUnits="userSpaceOnUse" x1="1279.9995" y1="0" x2="1279.9994" y2="1440.0005"><stop  offset="0" style="stop-color:#15EEFF"/><stop  offset="1" style="stop-color:#D015FF"/></linearGradient><path fill="url(#SVGID_1_)" d="M1942.692,442.637C1830.896,180.644,1571.105,0,1277.188,0C877.447,0,560,329.785,560,722.813C560,1119.206,880.763,1440,1277.188,1440C1670.645,1440,2000,1122.105,2000,722.813C2000,626.018,1980.721,531.754,1942.692,442.637z M1878.385,507.949c-73.893-58.486-169.38-99.29-260.809-125.261c-25.951-91.521-66.674-187.023-125.646-261.118C1671.455,185.89,1814.035,328.441,1878.385,507.949z M1620.816,680.65c23.028,0.275,41.684,19.068,41.684,42.162s-18.655,41.887-41.684,42.162c-0.164-0.011-0.321-0.045-0.484-0.054c-0.706-0.045-1.397-0.017-2.096-0.025c-22.285-1.094-40.095-19.507-40.108-42.055c0-0.009,0-0.018,0-0.028c0-0.012,0-0.017,0-0.028c0.014-22.258,17.364-40.491,39.245-42.01c0.102,0,0.2,0.014,0.299,0.014c0.88,0,1.769-0.028,2.66-0.084C1620.495,680.692,1620.652,680.661,1620.816,680.65z M1319.375,91.378c80.852,26.702,154.693,128.073,202.579,268.74c-64.699-12.366-132.804-19.803-202.579-21.946V91.378z M1319.375,422.584c79.895,2.596,157.143,12.549,228.721,29.219c11.352,48.484,19.777,100.086,24.733,153.726c-33.396,13.57-59.724,40.983-71.823,75.097h-181.631V422.584z M1319.375,765h181.631c12.1,34.115,38.434,61.535,71.832,75.103c-4.726,51.474-12.637,101.331-23.477,148.575c-49.131,11.172-101.126,19.328-154.876,24.186c-13.564-33.41-40.986-59.755-75.11-71.857V765z M1062.236,122.321c-28.361,36.301-54.138,80.134-76.564,130.899c-1.266-0.037-2.522-0.096-3.797-0.096c-80.429,0-141.303,74.73-123.472,154.257c-69.522,26.3-128.894,59.387-175.931,97.181C746.567,327.344,886.394,186.587,1062.236,122.321z M1024.063,379.688c0,23.262-18.926,42.188-42.188,42.188s-42.188-18.926-42.188-42.188s18.926-42.188,42.188-42.188S1024.063,356.426,1024.063,379.688z M905.04,480.164c3.774,2.892,7.704,5.586,11.793,8.047c-10.313,60.325-16.731,126.548-18.681,192.414H651.243C676.508,602.373,770.01,527.695,905.04,480.164z M898.139,765c2.05,69.902,9.174,136.819,20.703,199.527C777.744,918.067,677.582,845.719,651.263,765H898.139z M681.823,937.3c73.491,57.681,167.752,96.786,258.587,121.831c28.84,104.791,70.929,193.636,122.378,259.076C886.076,1254.378,745.679,1114,681.823,937.3z M1235,1348.484c-100.179-33.612-166.68-167.676-199.755-267.624c39.107,7.248,79.552,12.744,120.89,16.378c11.726,38.367,41.229,69.032,78.865,82.381V1348.484z M1235,941.006c-34.121,12.103-61.543,38.441-75.107,71.849c-52.42-4.765-102.634-12.676-149.755-23.268C994.422,919.468,985.039,843.651,982.562,765H1235V941.006z M1235,680.625H982.562c1.884-60.244,7.723-120.589,17.01-175.638c42.488-5.974,78.28-33.098,96.313-70.374c45.245-6.522,91.826-10.502,139.115-12.007V680.625z M1235,338.197c-44.188,1.322-87.826,4.703-130.494,10.147c-6.508-25.45-20.771-47.813-40.084-64.474c46.201-102.94,107.027-171.129,170.578-192.372V338.197z M1277.188,1102.5c-23.094,0-41.887-18.655-42.162-41.682c0.012-0.163,0.045-0.32,0.053-0.486c0.043-0.697,0.015-1.381,0.025-2.07c1.08-22.309,19.514-40.137,42.084-40.137s41.004,17.828,42.084,40.137c0.008,0.692-0.02,1.376,0.025,2.07c0.011,0.166,0.041,0.323,0.053,0.486C1319.074,1083.845,1300.281,1102.5,1277.188,1102.5z M1319.375,1348.731v-169.112c37.637-13.349,67.137-44.011,78.865-82.379c42.877-3.76,84.825-9.52,125.376-17.136C1489.503,1180.887,1420.4,1315.927,1319.375,1348.731z M1493.601,1318.168c59.288-74.303,99.464-169.265,125.011-260.013c90.543-25.13,185.857-64.581,259.813-122.487C1814.293,1113.098,1672.381,1254.125,1493.601,1318.168z M1640.781,963.313c7.299-38.694,12.809-78.652,16.438-119.441c38.379-11.723,69.049-41.791,82.4-79.434h168.826C1875.052,862.999,1740.213,930.254,1640.781,963.313z M1739.619,680.625c-13.352-37.643-44.021-67.148-82.398-78.871c-3.749-42.269-9.523-83.68-17.184-123.77c100.709,34.411,234.793,102.813,268.41,202.641H1739.619z"/></g></g></svg>
          