<?xml version="1.0" encoding="utf-8"?>
<!-- Generator: Adobe Illustrator 16.0.0, SVG Export Plug-In . SVG Version: 6.00 Build 0)  -->
<!DOCTYPE svg PUBLIC "-//W3C//DTD SVG 1.1//EN" "http://www.w3.org/Graphics/SVG/1.1/DTD/svg11.dtd">
<svg version="1.1"
	 id="svg25166" xmlns:sodipodi="http://sodipodi.sourceforge.net/DTD/sodipodi-0.dtd" xmlns:svg="http://www.w3.org/2000/svg" xmlns:inkscape="http://www.inkscape.org/namespaces/inkscape" xmlns:dc="http://purl.org/dc/elements/1.1/" xmlns:cc="http://creativecommons.org/ns#" xmlns:rdf="http://www.w3.org/1999/02/22-rdf-syntax-ns#" sodipodi:docname="Fujifilm_logo.svg" inkscape:version="0.91 r13725"
	 xmlns="http://www.w3.org/2000/svg" xmlns:xlink="http://www.w3.org/1999/xlink" x="0px" y="0px" width="100px" height="20px"
	 viewBox="0 709.5 100 20" enable-background="new 0 709.5 100 20" xml:space="preserve">
<sodipodi:namedview  showgrid="false" gridtolerance="10" bordercolor="#666666" inkscape:cx="409.70319" inkscape:cy="-19.745299" inkscape:zoom="0.5" objecttolerance="10" borderopacity="1" pagecolor="#ffffff" id="namedview4952" guidetolerance="10" inkscape:current-layer="svg25166" inkscape:pageopacity="0" inkscape:window-y="-8" inkscape:window-maximized="1" inkscape:pageshadow="2" inkscape:window-x="-8" inkscape:window-height="705" inkscape:window-width="1366">
	</sodipodi:namedview>
<g id="g5512" transform="matrix(2.0661355,0,0,2.0661355,0,-4.1323115)">
	<g id="g24728" transform="matrix(4.3916816,0,0,-4.3916816,379.3486,2.01011)">
		<path id="path24730" inkscape:connector-curvature="0" d="M-77.984-78.43v-1.435c0-0.093,0.046-0.141,0.14-0.146
			c0.001,0,0.473,0,0.473,0v-0.161c0-0.018-0.01-0.031-0.03-0.031h-0.766c-0.237,0-0.272,0.13-0.272,0.249v1.427
			c0,0.067,0.026,0.099,0.105,0.098H-77.984"/>
	</g>
	<g id="g24732" transform="matrix(4.3916816,0,0,-4.3916816,339.47168,2.01011)">
		<path id="path24734" inkscape:connector-curvature="0" d="M-69.786-78.43l0-1.68c0-0.075-0.032-0.093-0.095-0.093h-0.359v1.68
			c0,0.055,0.021,0.093,0.102,0.093H-69.786"/>
	</g>
	<g id="g24736" transform="matrix(4.3916816,0,0,-4.3916816,0,13.05386)">
		<path id="path24738" inkscape:connector-curvature="0" d="M0-76.16c0,0.135,0,0.245,0.222,0.245h0.976v-0.171
			c0-0.012-0.006-0.023-0.023-0.023l-0.585,0c-0.079,0-0.118-0.038-0.118-0.117v-0.45h0.688l0-0.179c0-0.016-0.01-0.024-0.025-0.024
			H0.473v-0.714c-0.001-0.069-0.036-0.096-0.111-0.095H0V-76.16"/>
	</g>
	<g id="g24740" transform="matrix(4.3916816,0,0,-4.3916816,86.0146,2.00221)">
		<path id="path24742" inkscape:connector-curvature="0" d="M-17.682-78.432v-1.352c0-0.116,0.016-0.197,0.098-0.244
			c0.109-0.063,0.294-0.064,0.405-0.002c0.076,0.043,0.105,0.111,0.105,0.246v1.262c0,0.057,0.022,0.09,0.101,0.09h0.353l0-1.312
			c0-0.305-0.192-0.43-0.361-0.476c-0.226-0.062-0.568-0.063-0.781,0.001c-0.254,0.077-0.373,0.227-0.374,0.475l0,1.221
			c0,0.059,0.021,0.091,0.089,0.091H-17.682"/>
	</g>
	<g id="g24744" transform="matrix(4.3916816,0,0,-4.3916816,474.26296,2.01451)">
		<path id="path24746" inkscape:connector-curvature="0" d="M-97.496-78.429c-0.09,0-0.141-0.042-0.161-0.122l-0.289-1.223l-0.008,0
			l-0.299,1.344h-0.409c-0.079,0-0.104-0.041-0.104-0.103v-1.67h0.173c0.028,0,0.039,0.014,0.039,0.042v1.4h0.027l0.369-1.442h0.242
			c0.091,0,0.125,0.037,0.148,0.128l0.332,1.315h0.027l0-1.442l0.323,0c0.079,0,0.115,0.03,0.115,0.108v1.664H-97.496"/>
	</g>
	<g id="g24748" transform="matrix(4.3916816,0,0,-4.3916816,231.57952,45.55406)">
		<path id="path24750" inkscape:connector-curvature="0" d="M-47.607-69.479h-0.454v-0.81h0.359c0.063,0,0.095,0.019,0.095,0.093
			C-47.606-70.195-47.607-69.848-47.607-69.479"/>
	</g>
	<g id="g24752" transform="matrix(4.3916816,0,0,-4.3916816,230.38322,29.92143)">
		<path id="path24754" inkscape:connector-curvature="0" fill="#ED1A3A" d="M-47.361-72.692c0.016,0.013,0.025,0.023,0.026,0.05
			v0.567h-0.353c-0.079,0-0.101-0.039-0.101-0.094v-0.859L-47.361-72.692"/>
	</g>
	<g id="g24756" transform="matrix(4.3916816,0,0,-4.3916816,160.01264,75.79827)">
		<path id="path24758" inkscape:connector-curvature="0" d="M-32.894-63.261c0.197,0.028,0.263,0.145,0.263,0.318v1.219
			c0,0.073,0.039,0.096,0.09,0.096h0.364v-1.152c0-0.283-0.06-0.427-0.228-0.547c-0.087-0.063-0.24-0.134-0.571-0.134
			c-0.19,0-0.274,0.011-0.285,0.013c-0.016,0.004-0.023,0.014-0.023,0.027v0.149C-33.206-63.275-33.027-63.28-32.894-63.261"/>
	</g>
	<g id="g24760" transform="matrix(4.3916816,0,0,-4.3916816,262.67744,2.00221)">
		<path id="path24762" inkscape:connector-curvature="0" d="M-53.999-78.432c-0.222,0-0.222-0.109-0.222-0.245v-0.457
			c0-0.009-0.004-0.013-0.008-0.017l-0.311-0.245h0.319v-0.81h0.361c0.076-0.001,0.11,0.026,0.111,0.095v0.714h0.663
			c0.016,0,0.026,0.008,0.026,0.024v0.179h-0.688v0.45c0,0.079,0.04,0.117,0.118,0.117l0.585,0c0.017,0,0.023,0.011,0.023,0.023
			v0.171H-53.999"/>
	</g>
</g>
</svg>
