<svg version="1.1" id="Layer_1" xmlns="http://www.w3.org/2000/svg" xmlns:xlink="http://www.w3.org/1999/xlink" x="0px" y="0px"
	 width="100" viewBox="0 894.5 2500 696" enable-background="new 0 894.5 2500 696" xml:space="preserve">
<g>
	<path fill="#FFFFFF" d="M0,0h2500v2500H0V0z"/>
	<path d="M1885.688,1240.675c-16.744-42.801-57.223-75.821-100.49-86.521c-118.608-31.633-268.863-19.065-350.741,80.011
		c-47.443,60.932-75.341,152.576-39.999,229.798c17.225,45.122,65.121,77.676,110.243,86.055
		c99.556,13.021,227.931,18.611,307.954-54.421C1887.529,1433.263,1912.664,1329.063,1885.688,1240.675L1885.688,1240.675z
		 M1640.092,1423.95c-11.167,4.177-29.313,6.044-39.545-1.867c-23.734-13.035-15.836-42.333-13.048-61.879
		c11.167-36.289,23.735-87.455,68.856-94.433c14.824-1.439,33.488,5.123,39.545,22.334
		C1700.076,1340.672,1684.98,1394.133,1640.092,1423.95L1640.092,1423.95z M560.981,942.228l-83.733,242.858l-63.655-242.858
		H244.441L36.756,1535.114H234.39l78.727-226.089l58.623,226.089h179.203l207.672-592.887H560.981L560.981,942.228z
		 M888.701,1119.109c34.889-5.123,71.632-16.277,90.711-50.712c13.955-27.444,8.846-60.479-7.898-84.653
		c-26.978-28.378-64.201-31.167-103.732-28.846c-36.289,5.123-73.033,23.255-86.055,60.933
		c-6.044,23.722-4.656,52.566,11.167,71.632C816.136,1115.854,853.825,1120.03,888.701,1119.109z M744.736,1158.822
		l-132.304,376.837h187.581l132.305-376.837H744.736z"/>
	<path d="M1470.24,1158.291h-217.725l-108.867,127.271l118.906-343.335h-190.928l-207.672,592.887h190.928l53.591-149.049
		l30.155,149.049h199.307l-33.515-180.876L1470.24,1158.291L1470.24,1158.291z M2327.566,1153.79
		c-83.719,0-138.996,36.848-167.465,61.97l21.763-56.95h-197.62l-132.33,376.837h197.633l63.656-180.877
		c10.025-28.469,26.77-41.879,55.251-41.879s35.187,28.469,26.796,51.918l-60.284,170.838h190.928l85.419-244.532
		C2434.775,1224.125,2411.313,1153.79,2327.566,1153.79L2327.566,1153.79z M2423.933,1456.712
		c-21.754-0.071-39.447,17.506-39.519,39.26c0,0.013,0,0.025,0,0.039c-0.043,21.79,17.586,39.488,39.376,39.531
		c0.047,0,0.095,0,0.143,0c21.739-0.028,39.34-17.675,39.312-39.414c0-0.039,0-0.078,0-0.117c0-21.704-17.595-39.299-39.299-39.299
		C2423.941,1456.712,2423.937,1456.712,2423.933,1456.712z M2423.933,1530.795c-19.133,0.022-34.66-15.471-34.682-34.603
		c0-0.061,0-0.121,0-0.182c0.015-19.104,15.513-34.579,34.616-34.564c0.021,0,0.044,0,0.065,0
		c19.084,0.007,34.552,15.479,34.552,34.564c0.093,19.117-15.33,34.691-34.447,34.784
		C2424.002,1530.795,2423.967,1530.795,2423.933,1530.795z"/>
	<path d="M2444.165,1485.713c0-3.723-1.673-7.64-4.968-9.494c-3.294-1.959-7.016-2.166-10.713-2.166h-19.195v44.059h5.37v-20.324
		h9.909l12.594,20.324h6.381l-13.294-20.324C2438.057,1497.58,2444.165,1494.376,2444.165,1485.713z M2422.895,1493.494h-8.235
		v-15.576h12.594c5.447,0,11.452,0.816,11.452,7.639C2438.691,1494.52,2429.094,1493.494,2422.895,1493.494z"/>
</g>
</svg>
