<?xml version="1.0" encoding="utf-8"?>
<!-- Generator: Adobe Illustrator 16.0.0, SVG Export Plug-In . SVG Version: 6.00 Build 0)  -->
<!DOCTYPE svg PUBLIC "-//W3C//DTD SVG 1.1//EN" "http://www.w3.org/Graphics/SVG/1.1/DTD/svg11.dtd">
<svg version="1.1" id="Layer_1" xmlns="http://www.w3.org/2000/svg" xmlns:xlink="http://www.w3.org/1999/xlink" x="0px" y="0px"
	 width="100" viewBox="0 1030.5 2478.5 420" enable-background="new 0 1030.5 2478.5 420" xml:space="preserve"
	>
<g>
	<path fill="#FFFFFF" d="M0,0h2500v2500H0V0z"/>
	<path d="M619.604,1269.273c0-59.531-7.146-106.716-125.274-106.716c-98.597,0-131.54,35.434-130.839,93.823h88.272
		c2.374-21.438,22.567-30.933,36.367-30.933c10.479,0,32.373,2.387,32.386,20.479c0.052,54.239-170.578,4.189-170.578,119.568
		c0,51.918,53.863,72.98,81.994,72.28c37.133-0.908,65.719-7.613,93.824-33.813l10.79,26.679h87.572
		C619.968,1421.11,619.604,1269.273,619.604,1269.273z M474.706,1380.8c-19.52,0-27.937-13.319-27.807-25.706
		c0.233-21.18,44.071-20.414,76.456-36.134C525.756,1353.227,509.479,1380.8,474.706,1380.8L474.706,1380.8z M2368.447,1325.925
		c-2.865,19.52-12.865,43.761-38.585,43.761c-31.179,0-48.234-30.35-48.234-67.975c0-29.52,11.076-69.143,48.234-69.143
		c10.973,0,19.532,3.334,25.706,10c6.213,6.199,10,14.76,10.493,25.719h95.249c-7.146-73.823-64.771-102.409-131.448-102.409
		c-82.409,0-143.458,49.039-143.458,134.289c0,84.304,62.955,136.183,143.458,136.183c69.052,0,124.782-34.707,133.368-110.438
		h-94.783V1325.925L2368.447,1325.925z M2080.402,1430.851h95.652v-256.464h-95.652V1430.851z M2080.402,1135.152h95.652v-65.51
		h-95.652V1135.152z M1630.572,1163.245c-84.304,0-142.318,50.582-142.318,137.272c0,85.263,62.774,135.832,142.798,135.832
		s142.875-49.246,142.875-140.696C1773.914,1218.029,1718.676,1163.245,1630.572,1163.245z M1631.052,1369.672
		c-25.252,0-44.784-27.094-44.784-74.252c0-28.092,11.932-62.864,45.718-62.864c25.732-1.427,43.903,28.17,43.903,64.849
		C1675.889,1344.575,1657.717,1369.672,1631.052,1369.672z M1314.836,1236.589c0.233-12.386,13.684-18.132,30.829-18.132
		c7.626,0,18.339,1.895,23.579,6.2c2.529,2.062,8.508,9.441,9.52,18.105h90.023c-2.451-66.626-67.793-80.529-126.184-80.529
		c-51.904,0-119.256,20.519-119.373,84.343c-0.169,104.705,159.995,66.482,159.995,106.481c0,17.639-13.203,24.267-36.834,24.267
		c-9.546,0-19.806-6.434-25.991-11.193c-6.693-5.239-9.43-11.361-10.493-22.878h-88.946c1.738,69.894,65.51,95.95,122.668,95.95
		c105.988,0,136.559-46.082,136.947-98C1481.29,1241.09,1314.174,1272.541,1314.836,1236.589z M1206.396,1269.273
		c0-59.531-7.146-106.716-125.274-106.716c-98.597,0-131.54,35.434-130.84,93.823h88.272c2.387-21.438,22.567-30.933,36.394-30.933
		c10.479,0,32.359,2.387,32.385,20.479c0.039,54.239-170.591,4.189-170.591,119.568c0,51.918,53.863,72.98,81.995,72.28
		c37.132-0.908,65.743-7.613,93.836-33.813l10.791,26.679h87.572C1206.746,1421.11,1206.396,1269.273,1206.396,1269.273z
		 M1061.484,1380.8c-19.52,0-27.937-13.319-27.807-25.706c0.233-21.18,44.084-20.414,76.469-36.134
		C1112.521,1353.227,1096.257,1380.8,1061.484,1380.8L1061.484,1380.8z M206.712,1060.811H36.756v369.768H146.52v-114.691h63.993
		c98.596,0,146.662-52.995,146.662-126.818C357.188,1118.577,305.308,1060.811,206.712,1060.811z M201.654,1234.566h-55.122v-83.409
		h40.362c23.799,0,59.998,6.472,59.998,38.378C246.905,1219.067,227.853,1234.566,201.654,1234.566z M1966.515,1163.232
		c-37.612,0-53.5,6.251-88.506,38.222l0.26-28.378l-90.763-0.078v257.813h90.763V1295.42c0-31.918,16.419-51.438,46.911-51.438
		c28.093,0,34.785,14.733,34.785,39.506v147.336h99.051v-157.79C2059.002,1204.45,2032.246,1163.232,1966.515,1163.232z
		 M827.898,1163.232c-37.625,0-53.513,6.251-88.505,38.222l0.233-28.378l-90.736-0.078v257.813h95.6V1295.42
		c0-31.918,12.606-55.03,43.099-55.03c28.093,0,33.734,18.326,33.734,43.099v147.336h99.076v-157.79
		C920.373,1204.45,893.617,1163.232,827.898,1163.232z"/>
</g>
</svg>
