<svg version="1.1" id="Layer_1" xmlns="http://www.w3.org/2000/svg" xmlns:xlink="http://www.w3.org/1999/xlink" x="0px" y="0px"
	 width="100" viewBox="0 994.5 2500 496" enable-background="new 0 994.5 2500 496" xml:space="preserve">
<g>
	<path fill="#FFFFFF" d="M0,0h2500v2500H0V0z"/>
	<path d="M2425.951,1380.613c-20.427-0.382-37.295,15.868-37.678,36.294c-0.382,20.427,15.867,37.296,36.294,37.678
		c0.462,0.009,0.923,0.009,1.384,0c20.395-0.021,36.91-16.571,36.889-36.966c0-0.035,0-0.069,0-0.104
		c0.007-20.372-16.503-36.894-36.876-36.901C2425.959,1380.613,2425.955,1380.613,2425.951,1380.613z M2425.951,1450.136
		c-17.944,0.021-32.509-14.508-32.53-32.452c0-0.057,0-0.112,0-0.169c0.007-17.923,14.542-32.446,32.466-32.439
		c0.021,0,0.043,0,0.064,0c17.908,0,32.426,14.519,32.426,32.427c0,0.004,0,0.009,0,0.013c0.086,17.931-14.379,32.535-32.309,32.621
		C2426.029,1450.136,2425.99,1450.136,2425.951,1450.136z"/>
	<path d="M2444.927,1407.826c0-3.489-1.543-7.16-4.63-8.911c-3.113-1.842-6.59-2.023-10.078-2.023h-18.017v41.337h5.046v-19.066h9.3
		l11.804,19.066h6.005l-12.491-19.066C2439.232,1418.955,2444.928,1415.959,2444.927,1407.826L2444.927,1407.826z
		 M2424.991,1415.181h-7.757v-14.618h11.804c5.136,0,10.766,0.778,10.766,7.173
		C2439.816,1416.153,2430.789,1415.181,2424.991,1415.181z M2209.148,1207.976l75.618-80.742c4.384-5.928,6.563-10.078,6.563-13.632
		c0-5.928-5.098-8.301-21.13-8.301h-19.079v-50.975h206.518v50.975h-27.135c-31.337,0-37.16,4.733-80.885,59.858l-119.627,129.188
		v78.835c0,20.169,10.182,27.264,39.34,27.264h45.163v49.185h-289.257v-49.185h45.164c29.132,0,39.34-7.095,39.34-27.264v-78.835
		l-140.899-155.868c-23.282-27.251-20.065-33.178-84.893-33.178v-50.975h261.591v50.975h-18.626
		c-18.95,0-26.979,3.554-26.979,10.661c0,5.94,5.824,10.675,9.469,15.409l71.286,77.693
		C2189.16,1217.872,2199.498,1219.014,2209.148,1207.976L2209.148,1207.976z M454.009,1054.313h63.102v142.236h-58.276
		c-5.162-28.432-22.958-39.496-39.184-54.412c-29.275-26.9-92.675-49.301-145.997-49.301c-68.822,0-126.904,21.35-126.904,52.738
		c0,87.136,393.592,17.795,393.592,182.548c0,85.93-84.309,133.934-235.714,133.934c-52.414,0-131.729-16.265-178.527-41.116
		c-14.669-8.47-20.896,8.016-23.645,28.678H37.757v-146.982h58.523c12.906,37.342,30.688,45.033,47.044,59.859
		c28.38,26.084,95.93,45.06,157.878,44.45c93.401-0.921,125.516-21.337,125.516-50.975c0-29.625-31.765-36.746-134.116-52.738
		l-86.903-14.229c-98.07-14.825-169.474-36.745-169.474-114.971c0-81.195,90.327-132.17,233.146-132.17
		c60.183,0,110.535,8.042,158.863,35.357C441.622,1085.922,454.178,1086.96,454.009,1054.313L454.009,1054.313z M1685.487,1292.453
		l1.245-158.086c0-20.74-10.792-27.848-41.623-27.848h-36.227v-49.185h230.487v49.185h-30.04c-30.857,0-41.648,7.121-41.648,27.848
		v318.259l-90.211-0.713l-292.148-276.649v200.914c0,20.156,10.791,27.848,41.623,27.848h40.104v48.601h-239.372v-48.601h39.664
		c30.831,0,41.623-7.704,41.623-27.848v-241.811c0-20.74-10.792-27.848-41.623-27.848h-39.664v-49.185h206.959L1685.487,1292.453z
		 M913.439,1038.878c-183.689,0-298.673,81.209-298.673,211.576c0,128.032,113.389,208.618,293.069,208.618
		c190.85,0,301.865-79.405,301.865-215.13C1209.713,1121.863,1089.917,1038.878,913.439,1038.878z M909.264,1407.527
		c-101.677,0-160.122-58.679-160.122-160.03c0-98.966,60.987-157.645,165.206-157.645c99.977,0,158.423,59.872,158.423,161.808
		C1072.771,1351.223,1013.469,1407.527,909.264,1407.527L909.264,1407.527z"/>
</g>
</svg>
